<?xml version="1.0" encoding="UTF-8"?>
<svg width="397px" height="482px" viewBox="0 0 397 482" version="1.1" xmlns="http://www.w3.org/2000/svg" xmlns:xlink="http://www.w3.org/1999/xlink">
    <title>Group</title>
    <defs>
        <rect id="path-1" x="0" y="0" width="397" height="482"></rect>
    </defs>
    <g id="Page-1" stroke="none" stroke-width="1" fill="none" fill-rule="evenodd">
        <g id="Light-2.0" transform="translate(1.000000, -218.000000)">
            <g id="Left-Side" transform="translate(-1.000000, 0.000000)">
                <g id="Group" transform="translate(0.000000, 218.000000)">
                    <mask id="mask-2" fill="white">
                        <use xlink:href="#path-1"></use>
                    </mask>
                    <g id="Rectangle"></g>
                    <g id="Auth-WorkTime" mask="url(#mask-2)" fill-rule="nonzero">
                        <g transform="translate(-133.000000, 0.000000)">
                            <rect id="Rectangle" fill="#CCCCCC" x="115" y="86" width="19" height="3"></rect>
                            <rect id="Rectangle" fill="#CCCCCC" x="115" y="115" width="19" height="3"></rect>
                            <path d="M156.714286,132 L145.285714,132 C142.919885,131.997345 141.002666,130.08839 141,127.732759 L141,81.2672414 C141.002666,78.9116096 142.919885,77.0026548 145.285714,77 L156.714286,77 C159.080115,77.0026548 160.997334,78.9116096 161,81.2672414 L161,127.732759 C160.997334,130.08839 159.080115,131.997345 156.714286,132 Z" id="Path" fill="#F2F2F2"></path>
                            <rect id="Rectangle" fill="#CCCCCC" x="142" y="86" width="19" height="3"></rect>
                            <rect id="Rectangle" fill="#CCCCCC" x="142" y="115" width="19" height="3"></rect>
                            <path d="M184.714286,132 L173.285714,132 C170.919885,131.997345 169.002666,130.08839 169,127.732759 L169,81.2672414 C169.002666,78.9116096 170.919885,77.0026548 173.285714,77 L184.714286,77 C187.080115,77.0026548 188.997334,78.9116096 189,81.2672414 L189,127.732759 C188.997334,130.08839 187.080115,131.997345 184.714286,132 Z" id="Path" fill="#F2F2F2"></path>
                            <rect id="Rectangle" fill="#CCCCCC" x="171" y="86" width="19" height="3"></rect>
                            <rect id="Rectangle" fill="#CCCCCC" x="171" y="115" width="19" height="3"></rect>
                            <path d="M142.714286,55 L131.285714,55 C128.919885,54.9973452 127.002666,53.0883904 127,50.7327586 L127,4.26724138 C127.002666,1.91160955 128.919885,0.00265475374 131.285714,0 L142.714286,0 C145.080115,0.00265475374 146.997334,1.91160955 147,4.26724138 L147,50.7327586 C146.997334,53.0883904 145.080115,54.9973452 142.714286,55 Z" id="Path" fill="#F2F2F2"></path>
                            <rect id="Rectangle" fill="#CCCCCC" x="127" y="9" width="19" height="3"></rect>
                            <rect id="Rectangle" fill="#CCCCCC" x="127" y="39" width="19" height="3"></rect>
                            <path d="M171.714286,55 L160.285714,55 C157.919885,54.9973452 156.002666,53.0883904 156,50.7327586 L156,4.26724138 C156.002666,1.91160955 157.919885,0.00265475374 160.285714,0 L171.714286,0 C174.080115,0.00265475374 175.997334,1.91160955 176,4.26724138 L176,50.7327586 C175.997334,53.0883904 174.080115,54.9973452 171.714286,55 Z" id="Path" fill="#F2F2F2"></path>
                            <rect id="Rectangle" fill="#CCCCCC" x="155" y="9" width="19" height="3"></rect>
                            <rect id="Rectangle" fill="#CCCCCC" x="155" y="39" width="19" height="3"></rect>
                            <path d="M198.714286,55 L187.285714,55 C184.919885,54.9973452 183.002666,53.0883904 183,50.7327586 L183,4.26724138 C183.002666,1.91160955 184.919885,0.00265475374 187.285714,0 L198.714286,0 C201.080115,0.00265475374 202.997334,1.91160955 203,4.26724138 L203,50.7327586 C202.997334,53.0883904 201.080115,54.9973452 198.714286,55 Z" id="Path" fill="#F2F2F2"></path>
                            <rect id="Rectangle" fill="#CCCCCC" x="183" y="9" width="19" height="3"></rect>
                            <rect id="Rectangle" fill="#CCCCCC" x="183" y="39" width="19" height="3"></rect>
                            <path d="M227.714286,55 L216.285714,55 C213.919885,54.9973452 212.002666,53.0883904 212,50.7327586 L212,4.26724138 C212.002666,1.91160955 213.919885,0.00265475374 216.285714,0 L227.714286,0 C230.080115,0.00265475374 231.997334,1.91160955 232,4.26724138 L232,50.7327586 C231.997334,53.0883904 230.080115,54.9973452 227.714286,55 Z" id="Path" fill="#F2F2F2"></path>
                            <rect id="Rectangle" fill="#CCCCCC" x="211" y="9" width="19" height="3"></rect>
                            <rect id="Rectangle" fill="#CCCCCC" x="211" y="39" width="19" height="3"></rect>
                            <path d="M270.055749,56 L0.944250871,56 C0.422755515,56 0,55.5522847 0,55 C0,54.4477153 0.422755515,54 0.944250871,54 L270.055749,54 C270.577244,54 271,54.4477153 271,55 C271,55.5522847 270.577244,56 270.055749,56 Z" id="Path" fill="#CCCCCC"></path>
                            <path d="M270.055749,132 L0.944250871,132 C0.422755515,132 0,131.552285 0,131 C0,130.447715 0.422755515,130 0.944250871,130 L270.055749,130 C270.577244,130 271,130.447715 271,131 C271,131.552285 270.577244,132 270.055749,132 Z" id="Path" fill="#CCCCCC"></path>
                            <path d="M270.055749,209 L0.944250871,209 C0.422755515,209 0,208.552285 0,208 C0,207.447715 0.422755515,207 0.944250871,207 L270.055749,207 C270.577244,207 271,207.447715 271,208 C271,208.552285 270.577244,209 270.055749,209 Z" id="Path" fill="#CCCCCC"></path>
                            <path d="M254,357.229358 C254,349.922972 226.689305,344 193,344 C159.310695,344 132,349.922972 132,357.229358 C132,361.912031 143.228092,366.023309 160.153846,368.374449 L160.153846,440.857798 C160.153846,444.250043 162.884909,447 166.253846,447 C169.622783,447 172.353846,444.250043 172.353846,440.857798 L172.353846,369.680073 C178.80302,370.183176 185.75213,370.458716 193,370.458716 C200.24787,370.458716 207.19698,370.183148 213.646154,369.680073 L213.646154,440.857798 C213.646154,444.250043 216.377217,447 219.746154,447 C223.115091,447 225.846154,444.250043 225.846154,440.857798 L225.846154,368.374449 C242.771918,366.023309 254,361.912031 254,357.229358 Z" id="Path" fill="#CCCCCC"></path>
                            <polygon id="Path" fill="#A0616A" points="242.001879 435 253.520615 435 259 391 242 391"></polygon>
                            <path d="M239.497305,433.348008 L275.856446,433.348008 L275.856446,447.386893 L253.545143,447.386893 C245.786737,447.386893 239.497305,441.101474 239.497305,433.348008 L239.497305,433.348008 L239.497305,433.348008 Z" id="Path" fill="#2F2E41" transform="translate(257.676876, 440.367450) rotate(179.997380) translate(-257.676876, -440.367450) "></path>
                            <polygon id="Path" fill="#A0616A" points="259.690246 428 271 424.58586 262.69245 381 246 386.037973"></polygon>
                            <path d="M257.949065,420.023635 L294.306135,420.030263 L294.308696,434.06995 L271.998659,434.065883 C264.240697,434.064469 257.950479,427.777545 257.949065,420.023635 L257.949065,420.023635 L257.949065,420.023635 Z" id="Path" fill="#2F2E41" transform="translate(276.128880, 427.046793) rotate(162.577380) translate(-276.128880, -427.046793) "></path>
                            <path d="M252.283014,407.274532 L231.128208,351.898189 C226.382187,353.009684 186.581119,361.792329 173.250608,347.638682 C168.682138,342.7876 167.79115,335.759459 170.602292,326.749009 L178.381914,317 L178.62371,317.012859 C181.565193,317.167179 250.722346,321.032616 255.463075,341.835026 C259.460192,359.372775 266.760127,392.070023 268.902043,401.673893 C269.35085,403.73051 268.221675,405.80474 266.247699,406.549771 L257.740142,409.730855 C257.266136,409.908805 256.763814,410 256.257332,410 C254.494438,410 252.914064,408.916026 252.283014,407.274532 Z" id="Path" fill="#2F2E41"></path>
                            <path d="M240.283014,415.274532 L219.128208,359.898189 C214.381951,361.009684 174.581119,369.791408 161.250608,355.638682 C156.682138,350.7876 155.79115,343.759459 158.602292,334.749009 L166.381914,325 L166.62371,325.012859 C169.565193,325.167179 238.722346,329.032616 243.463075,349.835026 C247.460192,367.372775 254.760127,400.070023 256.902043,409.673893 C257.35085,411.73051 256.221675,413.80474 254.247699,414.549771 L245.740142,417.730855 C245.266136,417.908805 244.763814,418 244.257332,418 C242.494438,418 240.914064,416.916026 240.283014,415.274532 Z" id="Path" fill="#2F2E41"></path>
                            <path d="M269.010557,281.97645 C268.694499,282.400629 268.412267,282.849153 268.166486,283.317852 L221.1208,288.291191 L214.348632,278.974729 L199,287.391981 L212.301373,310 L269.999179,295.239027 C272.979667,298.154605 277.447161,298.915605 281.219631,297.150337 C284.9921,295.385068 287.282427,291.46185 286.971961,287.296876 C286.661496,283.131902 283.815015,279.594185 279.822809,278.41163 C275.830603,277.229075 271.525636,278.648419 269.010557,281.976422 L269.010557,281.97645 Z" id="Path" fill="#A0616A"></path>
                            <path d="M157.455546,336.182023 C156.153241,335.236984 155.488208,333.635576 155.734721,332.038262 C158.36759,314.559679 155.338308,289.521275 152.333287,271.594169 C151.085908,264.21825 153.381492,256.683255 158.521861,251.280879 C163.66223,245.878502 171.039802,243.247293 178.410763,244.187508 C181.573269,244.6082 184.706151,245.230123 187.790606,246.049544 L187.790606,246.049544 C198.343558,248.725787 205.646098,258.409013 205.373466,269.364557 C204.924138,286.663549 208.41221,308.247739 209.932746,316.724143 C210.142504,317.901199 209.856713,319.113084 209.143836,320.06949 C208.444565,321.016273 207.380925,321.621826 206.214816,321.737041 C189.364235,323.468799 171.192725,331.74421 161.860714,336.522604 C161.260958,336.834239 160.596241,336.997867 159.921357,337 C159.034161,336.997066 158.17078,336.710658 157.455546,336.182023 L157.455546,336.182023 Z" id="Path" fill="#C4C1FF"></path>
                            <path d="M203.381695,290.702492 C202.35104,290.294443 201.525216,289.487698 201.088352,288.462132 L191.880788,267.023109 C190.364031,263.499055 190.828903,259.42696 193.100121,256.342233 C195.371339,253.257506 199.103451,251.629334 202.889239,252.071629 C206.675028,252.513924 209.938675,254.959414 211.449602,258.486011 L220.657389,279.925034 C221.569369,282.056299 220.598164,284.529489 218.486083,285.454308 L206.574583,290.651404 C205.559831,291.09778 204.410033,291.116181 203.381733,290.702501 L203.381695,290.702492 Z" id="Path" fill="#C4C1FF"></path>
                            <path d="M225.010557,279.97645 C224.694499,280.400629 224.412267,280.849153 224.166486,281.317852 L177.1208,286.291191 L170.348632,276.974729 L155,285.391981 L168.301373,308 L225.999179,293.239027 C228.979667,296.154605 233.447161,296.915605 237.219631,295.150337 C240.9921,293.385068 243.282427,289.46185 242.971961,285.296876 C242.661496,281.131902 239.815015,277.594185 235.822809,276.41163 C231.830603,275.229075 227.525636,276.648419 225.010557,279.976422 L225.010557,279.97645 Z" id="Path" fill="#A0616A"></path>
                            <path d="M159.381695,292.702492 C158.35104,292.294443 157.525216,291.487698 157.088352,290.462132 L147.880788,269.023109 C146.364031,265.499055 146.828903,261.42696 149.100121,258.342233 C151.371339,255.257506 155.103451,253.629334 158.889239,254.071629 C162.675028,254.513924 165.938675,256.959414 167.449602,260.486011 L176.657389,281.925034 C177.569369,284.056299 176.598164,286.529489 174.486083,287.454308 L162.574583,292.651404 C161.559831,293.09778 160.410033,293.116181 159.381733,292.702501 L159.381695,292.702492 Z" id="Path" fill="#C4C1FF"></path>
                            <circle id="Oval" fill="#A0616A" cx="177.5" cy="214.5" r="23.5"></circle>
                            <path d="M160.458013,230.206029 C160.25536,229.615985 160.338418,228.965814 160.68298,228.445021 C161.027542,227.924228 161.594828,227.591425 162.219492,227.543614 C163.49503,227.612683 164.686722,228.197866 165.517926,229.163318 C166.361371,230.131236 167.343274,230.970409 168.432107,231.653893 C169.559501,232.219505 171.08855,232.138897 171.731261,231.060553 C172.334755,230.047931 171.921248,228.691913 171.555878,227.515659 C170.62613,224.523092 170.105912,221.419443 170.009274,218.288542 C169.904024,214.793845 170.39941,211.146735 172.343276,208.421043 C174.852016,204.903254 179.337936,203.567759 183.583285,203.664582 C187.828634,203.761406 192.005122,205.065772 196.210286,205.890291 C197.662001,206.174934 199.368426,206.320471 200.339396,205.200619 C201.371835,204.009858 200.992649,202.082666 200.553494,200.474899 C199.413935,196.30293 198.204993,191.989532 195.557355,188.620132 C192.694584,185.119025 188.605282,182.827594 184.112984,182.207305 C179.800119,181.675571 175.422037,182.17028 171.338697,183.650759 C164.685904,185.737778 158.831915,189.796758 154.559632,195.284859 C150.155549,201.12122 148.252512,208.455799 149.266644,215.684805 C150.257403,221.980977 153.609479,227.669211 158.647162,231.602875 L160.458013,230.206029 Z" id="Path" fill="#2F2E41"></path>
                            <rect id="Rectangle" fill="#CCCCCC" x="213" y="288" width="81" height="7" rx="3.5"></rect>
                            <path d="M340.882353,295 L257.117647,295 C253.740546,294.996206 251.003817,292.27603 251,288.919355 L251,243.080645 C251.003823,239.723973 253.740549,237.003799 257.117647,237 L340.882353,237 C344.259451,237.003799 346.996177,239.723973 347,243.080645 L347,288.919355 C346.996183,292.27603 344.259454,294.996206 340.882353,295 Z" id="Path" fill="#CCCCCC"></path>
                            <circle id="Oval" fill="#FFFFFF" cx="299.5" cy="265.5" r="5.5"></circle>
                            <path d="M555,357.229358 C555,349.922972 527.689305,344 494,344 C460.310695,344 433,349.922972 433,357.229358 C433,361.912031 444.228092,366.023309 461.153846,368.374449 L461.153846,440.857798 C461.153846,444.250043 463.884909,447 467.253846,447 C470.622783,447 473.353846,444.250043 473.353846,440.857798 L473.353846,369.680073 C479.80302,370.183176 486.75213,370.458716 494,370.458716 C501.24787,370.458716 508.19698,370.183148 514.646154,369.680073 L514.646154,440.857798 C514.646154,444.250043 517.377217,447 520.746154,447 C524.115091,447 526.846154,444.250043 526.846154,440.857798 L526.846154,368.374449 C543.771918,366.023309 555,361.912031 555,357.229358 Z" id="Path" fill="#CCCCCC"></path>
                            <ellipse id="Oval" fill="#2F2E41" cx="500" cy="210.5" rx="27" ry="26.5"></ellipse>
                            <polygon id="Path" fill="#FFB8B8" points="434.998121 436 423.479385 436 418 392 435 392"></polygon>
                            <path d="M414.909107,433 L437,433 L437,447 L401,447 L401,447 C401,443.286962 402.465418,439.726 405.073883,437.100489 C407.682348,434.474978 411.220185,433 414.909107,433 Z" id="Path" fill="#2F2E41"></path>
                            <polygon id="Path" fill="#FFB8B8" points="416.309754 428 405 424.58586 413.30755 381 430 386.037973"></polygon>
                            <path d="M396.209064,420.970741 L418.519091,420.966674 L418.51653,435.006362 L382.159469,435.012989 L382.159469,435.012989 C382.160146,431.289434 383.640747,427.718114 386.275558,425.084682 C388.910368,422.451249 392.483557,420.97142 396.209064,420.970741 L396.209064,420.970741 Z" id="Path" fill="#2F2E41" transform="translate(400.339280, 427.989832) rotate(17.422620) translate(-400.339280, -427.989832) "></path>
                            <path d="M420.742676,411 C420.236194,411 419.733872,410.908805 419.259866,410.730855 L410.752301,407.549771 C408.778325,406.80474 407.64915,404.73051 408.097957,402.673893 C410.239873,393.069986 417.539797,360.372775 421.536923,342.835026 C426.277651,322.032616 495.434797,318.167179 498.37627,318.012859 L498.618075,318 L506.397715,327.748981 C509.208848,336.75944 508.31786,343.787581 503.74939,348.638654 C490.418891,362.792301 450.617827,354.009693 445.871807,352.898161 L424.717003,408.274503 C424.085961,409.916012 422.505581,411 420.742676,411 Z" id="Path" fill="#2F2E41"></path>
                            <path d="M432.742676,418 C432.236194,418 431.733872,417.908805 431.259866,417.730855 L422.752301,414.549771 C420.778325,413.80474 419.64915,411.73051 420.097957,409.673893 C422.239873,400.069986 429.539797,367.372775 433.536923,349.835026 C438.277651,329.032616 507.434797,325.167179 510.37627,325.012859 L510.618075,325 L518.397715,334.748981 C521.208848,343.75944 520.31786,350.787581 515.74939,355.638654 C502.418891,369.791379 462.618053,361.009693 457.871807,359.898161 L436.717003,415.274503 C436.085961,416.916012 434.505581,418 432.742676,418 L432.742676,418 Z" id="Path" fill="#2F2E41"></path>
                            <path d="M408.989456,281.976438 C409.30552,282.400614 409.587755,282.849139 409.833536,283.317841 L456.879207,288.291181 L463.651373,278.974716 L479,287.391971 L465.698631,310 L408.000844,295.23904 C405.020357,298.154628 400.552859,298.915636 396.780383,297.150368 C393.007908,295.385101 390.717575,291.461878 391.028038,287.296896 C391.338501,283.131915 394.184983,279.59419 398.177193,278.411631 C402.169403,277.229073 406.474374,278.64842 408.989456,281.976428 L408.989456,281.976438 Z" id="Path" fill="#FFB8B8"></path>
                            <path d="M515.078645,339 C514.403761,338.997867 513.739044,338.834239 513.139288,338.522604 C503.807277,333.74421 485.635758,325.468799 468.785186,323.737041 C467.619077,323.621826 466.555437,323.016273 465.856167,322.06949 C465.143285,321.113086 464.857494,319.901199 465.067256,318.724143 C466.587783,310.247739 470.075854,288.663549 469.626537,271.364557 C469.353904,260.409013 476.656444,250.725787 487.209396,248.049543 L487.209396,248.049543 C490.293848,247.230123 493.426727,246.6082 496.58923,246.187507 C503.960191,245.247294 511.337763,247.878502 516.478133,253.280879 C521.618503,258.683255 523.91409,266.218248 522.666715,273.594169 C519.661694,291.521275 516.632412,316.559679 519.265271,334.038262 C519.511787,335.635574 518.846757,337.236981 517.544456,338.182023 C516.829221,338.710658 515.965841,338.997066 515.078645,339 Z" id="Path" fill="#C4C1FF"></path>
                            <path d="M472.081824,293 C471.511853,292.999147 470.948106,292.880517 470.425419,292.651414 L458.51392,287.454316 C456.401835,286.529501 455.430629,284.056306 456.342613,281.925041 L465.5504,260.486012 C467.061326,256.959415 470.324973,254.513925 474.110762,254.071629 C477.89655,253.629334 481.628661,255.257506 483.899879,258.342234 C486.171097,261.426962 486.635969,265.499058 485.119213,269.023112 L475.911649,290.46214 C475.249608,292.00068 473.745673,292.997282 472.081861,293 L472.081824,293 Z" id="Path" fill="#C4C1FF"></path>
                            <circle id="Oval" fill="#FFB8B8" cx="498.5" cy="216.5" r="23.5"></circle>
                            <path d="M475,204.05026 C485.967052,210.77036 498.330976,214.859683 511.129626,216 L507.321242,211.419539 C510.094196,212.448679 513.012089,213.030283 515.966388,213.14272 C518.917199,213.09659 522.008894,211.956114 523.683627,209.516938 C525.199728,207.055851 525.419904,204.005757 524.273099,201.350986 C523.112459,198.742172 521.306045,196.474892 519.025759,194.764905 C510.816206,188.246192 499.899799,186.28784 489.94905,189.548682 C486.588464,190.55683 483.578738,192.494778 481.264651,195.140522 C479.069716,197.858531 474.844061,200.280173 475.967886,203.592177 L475,204.05026 Z" id="Path" fill="#2F2E41"></path>
                            <path d="M503,185.568003 C495.615258,178.204029 486.678729,172.521377 476.819582,168.920127 C470.490904,166.61462 463.602498,165.190169 456.986135,166.499467 C450.369771,167.808766 444.112696,172.309679 442.266825,178.693255 C440.75745,183.913162 442.315996,189.533413 444.658373,194.447158 C447.00075,199.360902 450.127996,203.917442 452.022246,209.014565 C455.949078,219.581081 454.175772,231.383594 447.309346,240.382004 C440.44292,249.380414 429.414798,254.354095 418,253.600514 C424.5009,254.457665 430.493111,257.461758 436.847423,259.060842 C443.201734,260.659925 450.701519,260.551447 455.423613,256.074972 C460.419761,251.338701 460.51979,243.638017 460.278234,236.817977 L459.201008,206.403299 C459.017879,201.233011 458.861491,195.897013 460.757629,191.071274 C462.653767,186.245535 467.160139,182.019812 472.420989,182.063721 C476.408186,182.096999 479.93719,184.472203 483.13477,186.814578 C486.33235,189.156954 489.716777,191.656123 493.688349,192.004535 C497.659921,192.352946 502.194559,189.462769 501.897368,185.552733" id="Path" fill="#2F2E41"></path>
                            <polygon id="Path" fill="#E6E6E6" points="396 266 449.281021 267.250973 457 323.901768 407.79469 325"></polygon>
                            <path d="M452.989456,279.976438 C453.30552,280.400614 453.587755,280.849139 453.833536,281.317841 L500.879207,286.291181 L507.651373,276.974716 L523,285.391971 L509.698631,308 L452.000844,293.23904 C449.020357,296.154628 444.552859,296.915636 440.780383,295.150368 C437.007908,293.385101 434.717575,289.461878 435.028038,285.296896 C435.338501,281.131915 438.184983,277.59419 442.177193,276.411631 C446.169403,275.229073 450.474374,276.64842 452.989456,279.976428 L452.989456,279.976438 Z" id="Path" fill="#FFB8B8"></path>
                            <path d="M516.081824,293 C515.511853,292.999147 514.948106,292.880517 514.425419,292.651414 L502.51392,287.454316 C500.401835,286.529501 499.430629,284.056306 500.342613,281.925041 L509.5504,260.486012 C511.061326,256.959415 514.324973,254.513925 518.110762,254.071629 C521.89655,253.629334 525.628661,255.257506 527.899879,258.342234 C530.171097,261.426962 530.635969,265.499058 529.119213,269.023112 L519.911649,290.46214 C519.249608,292.00068 517.745673,292.997282 516.081861,293 L516.081824,293 Z" id="Path" fill="#C4C1FF"></path>
                            <path d="M31.120438,293 C27.7402134,293 25,295.74747 25,299.136646 C25,302.525822 27.7402134,305.273292 31.120438,305.273292 L41.9489051,305.273292 L41.9489051,438.863354 C41.9489051,442.25253 44.6891185,445 48.0693431,445 C51.4495676,445 54.189781,442.25253 54.189781,438.863354 L54.189781,317.06515 L122.805634,441.759794 C124.499216,444.687336 128.236953,445.687476 131.160156,443.99529 C134.08336,442.303104 135.08836,438.557484 133.406515,435.623148 L61.6789561,305.273292 L389.40146,305.273292 L389.40146,305.352757 L317.718043,435.623148 C316.027931,438.558125 315.292542,444.941077 318.219767,446.635665 C321.146992,448.330253 326.62835,444.694771 328.318463,441.759794 L389.40146,330.754355 L389.40146,438.863354 C389.40146,442.25253 392.158956,447 395.539181,447 C398.919405,447 401.642336,442.25253 401.642336,438.863354 L401.642336,308.50907 L403.423025,305.273292 L405.879562,305.273292 C409.259787,305.273292 412,302.525822 412,299.136646 C412,295.74747 409.259787,293 405.879562,293 L31.120438,293 Z" id="Path" fill="#3F3D56"></path>
                        </g>
                    </g>
                    <rect id="LeftSide-Footer" fill="#3F4179" mask="url(#mask-2)" x="1" y="447" width="396" height="35"></rect>
                </g>
            </g>
        </g>
    </g>
</svg>